<svg version="1.1" xmlns="http://www.w3.org/2000/svg" viewBox="0 0 813.1349182128906 279.1507034301758" width="1626.2698364257812" height="558.3014068603516">
  <!-- svg-source:excalidraw -->
  
  <defs>
    <style>
      @font-face {
        font-family: "Virgil";
        src: url("https://excalidraw.com/Virgil.woff2");
      }
      @font-face {
        font-family: "Cascadia";
        src: url("https://excalidraw.com/Cascadia.woff2");
      }
    </style>
  </defs>
  <rect x="0" y="0" width="813.1349182128906" height="279.1507034301758" fill="#fff4e6"></rect><g stroke-linecap="round" transform="translate(10 71.71332550048828) rotate(0 66.62577819824219 30.222427368164062)"><path d="M1.49 0.1 C34.18 -0.42, 64.4 0.47, 135.17 1.64 M-0.13 -0.59 C28.8 -0.62, 57.44 -1.05, 134.22 -0.28 M132.57 1.28 C132.6 21.29, 135.01 47.46, 131.53 59.38 M134.09 0.12 C133.95 17.46, 132.76 32.71, 132.67 60.53 M131.67 58.87 C88.06 63.36, 41.62 62.27, -0.71 59.11 M133.68 60.69 C97.99 62.19, 63.83 61.28, -0.87 60.19 M-0.47 60.06 C-1.75 39.31, 0.91 16.11, 1.67 0.5 M0.98 59.7 C-0.25 46.37, 0.29 30.39, 0.1 -0.53" stroke="#000000" stroke-width="1" fill="none"></path></g><g transform="translate(35.723602294921875 16.858802795410156) rotate(0 44.5 12.5)"><text x="0" y="18" font-family="Virgil, Segoe UI Emoji" font-size="20px" fill="#000000" text-anchor="start" style="white-space: pre;" direction="ltr">let a = 1</text></g><g transform="translate(34.70433044433594 89.43575286865234) rotate(0 6.5 12.5)"><text x="6.5" y="18" font-family="Virgil, Segoe UI Emoji" font-size="20px" fill="#000000" text-anchor="middle" style="white-space: pre;" direction="ltr">a</text></g><g transform="translate(101.08865356445312 88.72327423095703) rotate(0 2.5 12.5)"><text x="2.5" y="18" font-family="Virgil, Segoe UI Emoji" font-size="20px" fill="#000000" text-anchor="middle" style="white-space: pre;" direction="ltr">1</text></g><g stroke-linecap="round"><g transform="translate(77.1029052734375 72.32340240478516) rotate(0 0.3193313024998474 29.024206410152885)"><path d="M-0.63 -0.7 C-0.28 8.94, 0.51 47.98, 0.94 57.79 M1.23 1.54 C1.54 11.3, -0.02 49.17, 0.06 58.75" stroke="#000000" stroke-width="1" fill="none"></path></g></g><g stroke-linecap="round" transform="translate(248.07432556152344 70.41825103759766) rotate(0 66.62577819824219 30.222427368164062)"><path d="M-1.25 1.56 C47.44 1.74, 96.7 -1.59, 131.76 -1.17 M-0.05 0.26 C47.74 1.39, 96.6 0.92, 132.9 -0.76 M135.16 0.23 C133.67 17.64, 132.9 30.15, 132.72 61.19 M133.14 -0.72 C133.58 22.75, 133.38 44.42, 132.39 59.65 M133.55 60.86 C87.16 58.67, 37.77 61.03, -1.78 58.96 M133.51 60.97 C104.76 59.15, 76.85 60.55, -0.99 59.63 M-0.6 59.71 C-1.57 46.02, -0.08 29.48, 1 1.04 M-0.94 60.09 C-0.62 46.87, -0.54 34.11, 0.07 0.52" stroke="#000000" stroke-width="1" fill="none"></path></g><g transform="translate(273.7979278564453 15.563728332519531) rotate(0 46.5 12.5)"><text x="0" y="18" font-family="Virgil, Segoe UI Emoji" font-size="20px" fill="#000000" text-anchor="start" style="white-space: pre;" direction="ltr">let b = a</text></g><g transform="translate(272.7786560058594 88.14067840576172) rotate(0 6.5 12.5)"><text x="6.5" y="18" font-family="Virgil, Segoe UI Emoji" font-size="20px" fill="#000000" text-anchor="middle" style="white-space: pre;" direction="ltr">a</text></g><g transform="translate(339.16297912597656 87.4281997680664) rotate(0 2.5 12.5)"><text x="2.5" y="18" font-family="Virgil, Segoe UI Emoji" font-size="20px" fill="#000000" text-anchor="middle" style="white-space: pre;" direction="ltr">1</text></g><g stroke-linecap="round"><g transform="translate(315.17723083496094 71.02832794189453) rotate(0 0.8626427810359587 29.813150267880417)"><path d="M0.97 1.06 C0.78 10.73, -0.08 48.22, -0.22 57.99 M0.03 0.57 C0.11 10.37, 1.52 49.53, 1.95 59.05" stroke="#000000" stroke-width="1" fill="none"></path></g></g><g stroke-linecap="round" transform="translate(248.5435028076172 130.94365692138672) rotate(0 66.62577819824219 30.222427368164062)"><path d="M-1.14 -0.18 C41.7 -0.42, 87.99 1.02, 133.76 -0.67 M0.83 -0.45 C43.4 -0.76, 87.48 -0.78, 132.71 0.79 M134.38 -1.37 C133.35 18.67, 134.2 40.98, 135.07 61.33 M133.71 -0.88 C133.04 24.25, 133.71 48.27, 132.83 61.24 M133.64 61.51 C92.49 59.67, 50.85 60.12, 1.87 60.58 M134.19 60.6 C106.12 60.54, 78.78 60.52, -0.07 60.13 M-1.99 60.13 C0.85 43.88, -1.48 29.72, -1.44 1.07 M0.62 60.67 C0.48 41.2, -0.12 22.43, 0.19 0.94" stroke="#000000" stroke-width="1" fill="none"></path></g><g transform="translate(274.7478332519531 148.66608428955078) rotate(0 5 12.5)"><text x="5" y="18" font-family="Virgil, Segoe UI Emoji" font-size="20px" fill="#000000" text-anchor="middle" style="white-space: pre;" direction="ltr">b</text></g><g transform="translate(339.6321563720703 147.95360565185547) rotate(0 2.5 12.5)"><text x="2.5" y="18" font-family="Virgil, Segoe UI Emoji" font-size="20px" fill="#000000" text-anchor="middle" style="white-space: pre;" direction="ltr">1</text></g><g stroke-linecap="round"><g transform="translate(315.6464080810547 131.5537338256836) rotate(0 0.30253242738547215 29.80137089098804)"><path d="M-0.98 -0.85 C-0.6 8.99, 1.24 49.01, 1.59 58.9 M0.7 1.32 C1.05 11.37, 1.09 50.74, 1.05 60.45" stroke="#000000" stroke-width="1" fill="none"></path></g></g><g transform="translate(541.5388641357422 10) rotate(0 17.5 12.5)"><text x="0" y="18" font-family="Virgil, Segoe UI Emoji" font-size="20px" fill="#000000" text-anchor="start" style="white-space: pre;" direction="ltr">b++</text></g><g stroke-linecap="round" transform="translate(502.7898864746094 71.51679229736328) rotate(0 81.69677734375 98.81695556640625)"><path d="M1.05 -1.1 C50.78 -0.91, 104.02 -2.31, 163.28 -1.63 M-0.7 0.85 C33.98 -0.37, 67.97 0.33, 163.8 -0.38 M164.38 0.34 C162.9 45.85, 161.04 90.63, 163.75 198.72 M164.03 0.84 C163.99 49.74, 162.5 99.53, 162.41 197.25 M162.16 196.61 C109.29 197.48, 56.37 197.41, -1.85 196.74 M164.11 198.49 C103.26 196.24, 43.33 196.91, 0.94 197.36 M1.18 198.15 C1.29 155.1, 0.45 112.7, 0.89 -1.71 M-0.63 198.1 C-0.94 147.07, -0.57 95.87, 0.66 -0.38" stroke="#000000" stroke-width="1" fill="none"></path></g><g stroke-linecap="round"><g transform="translate(505.2760925292969 139.56903839111328) rotate(0 79.8199018049985 -0.9916475523263557)"><path d="M-0.19 -0.4 C26.57 -0.56, 133.4 -1.37, 159.83 -1.58" stroke="#000000" stroke-width="1.5" fill="none" stroke-dasharray="8 9"></path></g></g><g stroke-linecap="round"><g transform="translate(505.6015930175781 207.07648468017578) rotate(0 77.91246552951634 -0.01646377928551601)"><path d="M-0.81 -0.46 C25.31 -0.25, 130.13 0.14, 156.64 0.43" stroke="#000000" stroke-width="1.5" fill="none" stroke-dasharray="8 9"></path></g></g><g stroke-linecap="round"><g transform="translate(583.6294860839844 72.16651153564453) rotate(0 2.5541839438863008 98.1697009631526)"><path d="M1.18 0.77 C1.6 33.44, 2.17 163.63, 2.52 196.21 M0.34 0.13 C1.14 32.45, 4.4 162.17, 4.77 194.54" stroke="#000000" stroke-width="1" fill="none"></path></g></g><g transform="translate(545.8819274902344 92.60260772705078) rotate(0 6.5 12.5)"><text x="0" y="18" font-family="Virgil, Segoe UI Emoji" font-size="20px" fill="#000000" text-anchor="start" style="white-space: pre;" direction="ltr">a</text></g><g transform="translate(622.8819274902344 96.60260772705078) rotate(0 2.5 12.5)"><text x="0" y="18" font-family="Virgil, Segoe UI Emoji" font-size="20px" fill="#000000" text-anchor="start" style="white-space: pre;" direction="ltr">1</text></g><g transform="translate(545.5932312011719 158.60260772705078) rotate(0 5 12.5)"><text x="0" y="18" font-family="Virgil, Segoe UI Emoji" font-size="20px" fill="#000000" text-anchor="start" style="white-space: pre;" direction="ltr">b</text></g><g transform="translate(626.8663024902344 158.6026382446289) rotate(0 2.5 12.5)"><text x="0" y="18" font-family="Virgil, Segoe UI Emoji" font-size="20px" fill="#000000" text-anchor="start" style="white-space: pre;" direction="ltr">1</text></g><g transform="translate(546.0423889160156 225.60260772705078) rotate(0 5 12.5)"><text x="0" y="18" font-family="Virgil, Segoe UI Emoji" font-size="20px" fill="#000000" text-anchor="start" style="white-space: pre;" direction="ltr">b</text></g><g transform="translate(620.2349548339844 227.28382110595703) rotate(0 7 12.5)"><text x="0" y="18" font-family="Virgil, Segoe UI Emoji" font-size="20px" fill="#000000" text-anchor="start" style="white-space: pre;" direction="ltr">2</text></g><g transform="translate(684.1349182128906 158.84906768798828) rotate(0 59.5 12.5)"><text x="0" y="18" font-family="Virgil, Segoe UI Emoji" font-size="20px" fill="#000000" text-anchor="start" style="white-space: pre;" direction="ltr">will be cover</text></g></svg>