<svg version="1.1" xmlns="http://www.w3.org/2000/svg" viewBox="0 0 826.8391723632812 372.43505859375" width="1653.6783447265625" height="744.8701171875">
  <!-- svg-source:excalidraw -->
  
  <defs>
    <style>
      @font-face {
        font-family: "Virgil";
        src: url("https://excalidraw.com/Virgil.woff2");
      }
      @font-face {
        font-family: "Cascadia";
        src: url("https://excalidraw.com/Cascadia.woff2");
      }
    </style>
  </defs>
  <rect x="0" y="0" width="826.8391723632812" height="372.43505859375" fill="#fff4e6"></rect><g stroke-linecap="round" transform="translate(10 101.0802001953125) rotate(0 160.28695678710938 76.54586791992188)"><path d="M1.12 1.33 C96.64 -1.19, 195.42 -0.68, 320.4 -1.03 M0.62 -0.11 C105.38 -2.12, 209.35 -0.83, 321.15 0.03 M320.76 0.92 C320.86 51.42, 319.22 105.93, 322.52 152.28 M320.45 -0.3 C320.74 37.43, 320.49 73.21, 320.32 152.27 M319.54 153.11 C232.23 151.73, 141.51 152.29, 0.4 153.78 M320.37 153.29 C215.19 154.89, 108.39 154.29, -0.24 153.17 M-0.61 154.7 C2.7 95.47, 2.85 37.83, 0.77 -0.89 M0.1 153.37 C2.31 95.41, 1.42 38.28, 0.09 0.62" stroke="#000000" stroke-width="1" fill="none"></path></g><g stroke-linecap="round"><g transform="translate(109.25396728515625 102.6641845703125) rotate(0 0.8411721535027255 75.80232691837944)"><path d="M-0.93 -0.36 C-0.59 25.31, 2.02 127.63, 2.61 153.21 M0.79 -1.6 C0.95 23.8, 1.63 125.96, 1.84 151.4" stroke="#000000" stroke-width="1" fill="none"></path></g></g><g stroke-linecap="round"><g transform="translate(11.789825439453125 177.295166015625) rotate(0 161.12119860866574 -1.9004733987152918)"><path d="M1.01 -0.38 C54.57 -1.11, 268.86 -2.87, 322.15 -3.42 M0.09 -1.63 C53.51 -2.26, 268.51 -1.81, 321.81 -1.97" stroke="#000000" stroke-width="1" fill="none"></path></g></g><g transform="translate(30.3927001953125 126.73583984375) rotate(0 30.5 12.5)"><text x="0" y="18" font-family="Virgil, Segoe UI Emoji" font-size="20px" fill="#000000" text-anchor="start" style="white-space: pre;" direction="ltr">person</text></g><g transform="translate(27.20318603515625 203.5675048828125) rotate(0 37.5 12.5)"><text x="0" y="18" font-family="Virgil, Segoe UI Emoji" font-size="20px" fill="#000000" text-anchor="start" style="white-space: pre;" direction="ltr">perons2</text></g><g transform="translate(155.5013427734375 127.17227172851562) rotate(0 54 12.5)"><text x="0" y="18" font-family="Virgil, Segoe UI Emoji" font-size="20px" fill="#000000" text-anchor="start" style="white-space: pre;" direction="ltr">0x0017x23</text></g><g transform="translate(155.441162109375 201.27850341796875) rotate(0 54 12.5)"><text x="0" y="18" font-family="Virgil, Segoe UI Emoji" font-size="20px" fill="#000000" text-anchor="start" style="white-space: pre;" direction="ltr">0x0017x23</text></g><g stroke-linecap="round" transform="translate(486.42694091796875 51.61651611328125) rotate(0 165.20611572265625 155.40927124023438)"><path d="M0.4 1.13 C130.71 0.04, 260.83 -1.68, 329.44 0.4 M-0.65 0.1 C119.57 1.44, 239.21 2.04, 330.85 -0.62 M330.75 -0.58 C327.37 104.44, 328.63 208.65, 331.09 311.9 M330.46 0.34 C330.81 84, 330.28 167.31, 330.53 311 M329.12 311.05 C199.97 309.96, 69.93 308.95, 1.06 310.89 M331.05 310.53 C223.19 309.7, 114.68 309.17, -0.14 310.72 M0.86 310.63 C-0.28 186.82, -0.47 64.41, 1.02 1.05 M-0.33 311.33 C2.52 191.3, 1.44 73.03, 0.14 -0.04" stroke="#000000" stroke-width="1" fill="none"></path></g><g transform="translate(634.5226440429688 10) rotate(0 20 14)"><text x="0" y="21" font-family="Virgil, Segoe UI Emoji" font-size="20px" fill="#000000" text-anchor="start" style="white-space: pre;" direction="ltr">内存</text></g><g stroke-linecap="round" transform="translate(523.752197265625 94.1785888671875) rotate(0 130.30166625976562 64.47259521484375)"><path d="M-1.26 0.86 C97.02 1.19, 193.97 1.72, 261.64 -1.21 M0.27 -0.56 C56.22 0.39, 110.42 0.63, 259.95 -0.03 M259.42 1.53 C261.16 48.06, 262.4 96.89, 258.6 130.82 M259.73 0.06 C259.4 31.09, 259.95 63.7, 261.48 129.39 M261.46 128.14 C200.16 129.74, 138.2 129.95, -0.97 129.42 M259.93 128.29 C197.21 128.01, 134.77 127.27, -0.68 128.36 M1.75 129.35 C-1.23 92.71, 0.57 54.91, -0.34 -0.72 M0.48 128.28 C-0.22 86.11, 0.12 40.86, 0.33 0.75" stroke="#000000" stroke-width="1" fill="none"></path></g><g transform="translate(566.1412963867188 109.160888671875) rotate(0 77 50)"><text x="0" y="18" font-family="Virgil, Segoe UI Emoji" font-size="20px" fill="#000000" text-anchor="start" style="white-space: pre;" direction="ltr">{</text><text x="0" y="43" font-family="Virgil, Segoe UI Emoji" font-size="20px" fill="#000000" text-anchor="start" style="white-space: pre;" direction="ltr">    name: 'Long'</text><text x="0" y="68" font-family="Virgil, Segoe UI Emoji" font-size="20px" fill="#000000" text-anchor="start" style="white-space: pre;" direction="ltr">    age: 21</text><text x="0" y="93" font-family="Virgil, Segoe UI Emoji" font-size="20px" fill="#000000" text-anchor="start" style="white-space: pre;" direction="ltr">}</text></g><g stroke-linecap="round"><g transform="translate(334.19195556640625 144.00439453125) rotate(0 94.76470464735291 5.272523070801981)"><path d="M-0.06 -0.17 C31.52 1.72, 157.34 9.92, 188.74 11.86 M-1.55 -1.31 C30.49 0.16, 159.05 7.53, 191.08 9.85" stroke="#000000" stroke-width="1" fill="none"></path></g><g transform="translate(334.19195556640625 144.00439453125) rotate(0 94.76470464735291 5.272523070801981)"><path d="M162.01 17.12 C169.41 14.48, 175.46 13.4, 189.29 11.46 M162.41 18.43 C167.39 16.58, 175.35 15.38, 190.75 10.65" stroke="#000000" stroke-width="1" fill="none"></path></g><g transform="translate(334.19195556640625 144.00439453125) rotate(0 94.76470464735291 5.272523070801981)"><path d="M163.31 -3.36 C170.49 -1.18, 176.23 2.58, 189.29 11.46 M163.71 -2.05 C168.52 0.45, 176.2 3.6, 190.75 10.65" stroke="#000000" stroke-width="1" fill="none"></path></g></g><g stroke-linecap="round"><g transform="translate(337.08984375 219.58807373046875) rotate(0 93.54943731426727 -24.90466768071059)"><path d="M1.09 0.08 C32.08 -8.1, 155.79 -41.85, 186.9 -49.89 M0.2 -0.92 C30.98 -8.93, 154.86 -40.73, 186.08 -48.94" stroke="#000000" stroke-width="1" fill="none"></path></g><g transform="translate(337.08984375 219.58807373046875) rotate(0 93.54943731426727 -24.90466768071059)"><path d="M161.5 -31.5 C168.98 -36.79, 181.26 -43.56, 184.51 -50.48 M161.41 -31.66 C166.84 -35.71, 172.11 -39.5, 186.01 -48.94" stroke="#000000" stroke-width="1" fill="none"></path></g><g transform="translate(337.08984375 219.58807373046875) rotate(0 93.54943731426727 -24.90466768071059)"><path d="M156.35 -51.37 C165.65 -49.18, 179.88 -48.43, 184.51 -50.48 M156.26 -51.53 C162.83 -50.99, 169.28 -50.23, 186.01 -48.94" stroke="#000000" stroke-width="1" fill="none"></path></g></g></svg>