<svg version="1.1" xmlns="http://www.w3.org/2000/svg" viewBox="0 0 930.0056457519531 198.95803833007812" width="1860.0112915039062" height="397.91607666015625">
  <!-- svg-source:excalidraw -->
  
  <defs>
    <style>
      @font-face {
        font-family: "Virgil";
        src: url("https://excalidraw.com/Virgil.woff2");
      }
      @font-face {
        font-family: "Cascadia";
        src: url("https://excalidraw.com/Cascadia.woff2");
      }
    </style>
  </defs>
  <rect x="0" y="0" width="930.0056457519531" height="198.95803833007812" fill="#fff4e6"></rect><g stroke-linecap="round" transform="translate(10 68.6676025390625) rotate(0 67.33335876464844 60.14521789550781)"><path d="M1.49 0.1 C34.52 -0.43, 65.09 0.46, 136.59 1.64 M-0.13 -0.59 C29.1 -0.63, 58.05 -1.06, 135.63 -0.28 M133.99 1.28 C134.58 43.82, 137 92.53, 132.95 119.23 M135.5 0.12 C135.66 33.91, 134.47 65.6, 134.09 120.38 M133.08 118.72 C89 123.22, 42.07 122.12, -0.71 118.96 M135.1 120.53 C99.04 122.05, 64.52 121.14, -0.87 120.04 M-0.47 119.91 C-1.76 76.29, 0.9 30.21, 1.67 0.5 M0.98 119.55 C0.2 91.35, 0.74 60.5, 0.1 -0.53" stroke="#000000" stroke-width="1" fill="none"></path></g><g transform="translate(24.979354858398438 102.18171691894531) rotate(0 60 28)"><text x="0" y="21" font-family="Virgil, Segoe UI Emoji" font-size="20px" fill="#000000" text-anchor="start" style="white-space: pre;" direction="ltr">变量，函数，</text><text x="0" y="49" font-family="Virgil, Segoe UI Emoji" font-size="20px" fill="#000000" text-anchor="start" style="white-space: pre;" direction="ltr">对象等</text></g><g stroke-linecap="round" transform="translate(277.2913589477539 67.46687316894531) rotate(0 67.33335876464844 60.14521789550781)"><path d="M1.1 -0.68 C48.4 0.01, 94.81 -0.08, 134.94 1.01 M0.05 0.26 C46.41 -1.91, 92.04 -1.62, 135.21 -0.92 M134.53 -1.18 C135.63 27.53, 132.51 55.5, 135.56 119.1 M135.67 -0.16 C133.71 38.17, 134.13 76.44, 135.13 120.75 M133.8 121.16 C88.76 119.65, 43.71 118.13, 1.51 121.04 M135.09 119.43 C93.96 120.27, 53.72 120.9, 0.88 119.97 M-0.39 120.38 C-0.98 86.48, 1.66 54.03, 0.44 -1.64 M0 120.58 C-1.86 88.16, -0.4 58.81, 0.84 -1" stroke="#000000" stroke-width="1" fill="none"></path></g><g transform="translate(304.62471771240234 113.61209106445312) rotate(0 40 14)"><text x="40" y="21" font-family="Virgil, Segoe UI Emoji" font-size="20px" fill="#000000" text-anchor="middle" style="white-space: pre;" direction="ltr">数据类型</text></g><g stroke-linecap="round" transform="translate(524.0057754516602 67.81700134277344) rotate(0 67.33335876464844 60.14521789550781)"><path d="M-0.87 0.13 C41.56 0.88, 82.81 -0.48, 135.06 -1.49 M0.86 0.56 C36.54 0.73, 73.23 1.31, 134.34 -0.45 M133.59 -0.45 C135.74 27.75, 133.03 56.06, 134.17 120.23 M133.76 0.01 C134.91 31.55, 136.03 65.74, 135.58 121.01 M135.73 121.42 C85.08 121.27, 37.61 122.19, -1.93 120.67 M134.1 120.39 C88.26 119.75, 42.91 119.04, -0.7 120.48 M1.17 118.73 C0.31 85.66, 0.02 51.67, 0.07 -0.45 M-0.56 119.45 C0.56 88.43, 0.71 57.17, 0.35 -0.18" stroke="#000000" stroke-width="1" fill="none"></path></g><g transform="translate(570.1639633178711 115.4324951171875) rotate(0 20 14)"><text x="0" y="21" font-family="Virgil, Segoe UI Emoji" font-size="20px" fill="#000000" text-anchor="start" style="white-space: pre;" direction="ltr">内存</text></g><g stroke-linecap="round" transform="translate(764.5829238891602 66.18247985839844) rotate(0 67.33335876464844 60.14521789550781)"><path d="M0.19 -1.6 C42.14 -0.32, 82.7 -0.64, 135.04 -0.28 M-0.78 0.45 C46.99 -0.48, 94.29 -0.75, 134.44 -0.35 M132.99 1.29 C135.66 38.53, 136.93 74.6, 134.31 118.72 M135.25 -0.77 C134.47 38.07, 134.56 76.93, 133.9 120.13 M136.6 118.97 C93.94 121.35, 51.2 119.19, 1.59 119.3 M135.05 119.71 C105.44 119.89, 75.26 119.98, -0.47 119.71 M0.69 120.01 C-1.7 77.88, 1.55 33.35, 0.52 0.52 M-0.94 120.95 C-0.39 85.38, -0.96 52.17, 1 -0.34" stroke="#000000" stroke-width="1" fill="none"></path></g><g transform="translate(792.8814315795898 114.75411987304688) rotate(0 40 14)"><text x="0" y="21" font-family="Virgil, Segoe UI Emoji" font-size="20px" fill="#000000" text-anchor="start" style="white-space: pre;" direction="ltr">数据类型</text></g><g stroke-linecap="round"><g transform="translate(163.55947875976562 128.1547943103949) rotate(0 56.73397709165698 -0.4699146819596649)"><path d="M-0.27 0.15 C18.25 -0.2, 92.83 -0.82, 111.61 -1.09 M1.79 -0.81 C20.62 -0.49, 95.45 0.09, 113.74 0.1" stroke="#000000" stroke-width="1" fill="none"></path></g><g transform="translate(163.55947875976562 128.1547943103949) rotate(0 56.73397709165698 -0.4699146819596649)"><path d="M85.75 8.36 C93.94 6.39, 102.9 4.28, 114.28 1.52 M84.77 10.29 C92.27 7.55, 98.53 6.83, 113.74 -0.58" stroke="#000000" stroke-width="1" fill="none"></path></g><g transform="translate(163.55947875976562 128.1547943103949) rotate(0 56.73397709165698 -0.4699146819596649)"><path d="M85.86 -12.16 C94.18 -7.15, 103.11 -2.28, 114.28 1.52 M84.87 -10.23 C92.42 -8.46, 98.66 -4.66, 113.74 -0.58" stroke="#000000" stroke-width="1" fill="none"></path></g></g><g stroke-linecap="round"><g transform="translate(419.0185852050781 132.11746215820312) rotate(0 50.83424995180218 -0.8068427866324441)"><path d="M0.53 1.07 C17.63 0.93, 85.41 -0.52, 102.32 -1.16 M-0.65 0.59 C16.28 0.16, 83.59 -2.31, 101.1 -2.69" stroke="#000000" stroke-width="1" fill="none"></path></g><g transform="translate(419.0185852050781 132.11746215820312) rotate(0 50.83424995180218 -0.8068427866324441)"><path d="M75.02 7.57 C82.81 3.79, 87.81 2.23, 99.3 -4.41 M72.9 7.9 C79.49 6.39, 86.38 3.71, 100.31 -1.77" stroke="#000000" stroke-width="1" fill="none"></path></g><g transform="translate(419.0185852050781 132.11746215820312) rotate(0 50.83424995180218 -0.8068427866324441)"><path d="M74.4 -12.94 C82.32 -11.08, 87.49 -6.99, 99.3 -4.41 M72.28 -12.61 C79.05 -9.54, 86.09 -7.66, 100.31 -1.77" stroke="#000000" stroke-width="1" fill="none"></path></g></g><g stroke-linecap="round"><g transform="translate(661.7156066894531 130.28317260742188) rotate(0 51.0219536088872 0.5394054106270687)"><path d="M0.9 -0.68 C18.05 -0.5, 85.25 0.42, 102.13 0.61 M-0.09 1.58 C17.01 1.92, 84.45 1.69, 101.42 1.61" stroke="#000000" stroke-width="1" fill="none"></path></g><g transform="translate(661.7156066894531 130.28317260742188) rotate(0 51.0219536088872 0.5394054106270687)"><path d="M72.13 12.72 C78.28 10.18, 84.64 6.05, 99.7 1.64 M73.22 10.99 C79.74 9.86, 84.72 8.6, 100.92 0.67" stroke="#000000" stroke-width="1" fill="none"></path></g><g transform="translate(661.7156066894531 130.28317260742188) rotate(0 51.0219536088872 0.5394054106270687)"><path d="M72.06 -7.8 C78.14 -5.48, 84.52 -4.76, 99.7 1.64 M73.15 -9.53 C79.56 -6.41, 84.55 -3.41, 100.92 0.67" stroke="#000000" stroke-width="1" fill="none"></path></g></g><g transform="translate(51.254669189453125 10.4342041015625) rotate(0 20 14)"><text x="0" y="21" font-family="Virgil, Segoe UI Emoji" font-size="20px" fill="#000000" text-anchor="start" style="white-space: pre;" direction="ltr">个体</text></g><g transform="translate(273.4230651855469 10) rotate(0 70 14)"><text x="0" y="21" font-family="Virgil, Segoe UI Emoji" font-size="20px" fill="#000000" text-anchor="start" style="white-space: pre;" direction="ltr">以什么形式存在</text></g><g transform="translate(535.7201232910156 11.643829345703125) rotate(0 50 14)"><text x="0" y="21" font-family="Virgil, Segoe UI Emoji" font-size="20px" fill="#000000" text-anchor="start" style="white-space: pre;" direction="ltr">存放在哪里</text></g><g transform="translate(760.0056457519531 10.38214111328125) rotate(0 80 14)"><text x="0" y="21" font-family="Virgil, Segoe UI Emoji" font-size="20px" fill="#000000" text-anchor="start" style="white-space: pre;" direction="ltr">如何在内存中存取</text></g></svg>